<?xml version="1.0" standalone="no"?>
<!DOCTYPE svg PUBLIC "-//W3C//DTD SVG 20010904//EN"
 "http://www.w3.org/TR/2001/REC-SVG-20010904/DTD/svg10.dtd">
<svg version="1.0" xmlns="http://www.w3.org/2000/svg"
 width="500.000000pt" height="500.000000pt" viewBox="0 0 500.000000 500.000000"
 preserveAspectRatio="xMidYMid meet">

<g transform="translate(0.000000,500.000000) scale(0.100000,-0.100000)"
fill="#000000" stroke="none">
<path d="M2823 3703 c15 -2 37 -2 50 0 12 2 0 4 -28 4 -27 0 -38 -2 -22 -4z"/>
<path d="M2725 3685 c-39 -17 -21 -18 25 0 19 7 28 14 20 14 -8 0 -28 -6 -45
-14z"/>
<path d="M2950 3680 c30 -10 56 -17 58 -16 5 6 -77 36 -96 36 -9 -1 8 -9 38
-20z"/>
<path d="M1712 3670 c-115 -5 -125 -7 -143 -29 -18 -22 -19 -50 -20 -690 -1
-366 -2 -682 -2 -701 0 -19 0 -59 1 -87 l2 -53 55 0 55 0 0 755 c0 742 0 755
20 775 19 19 35 20 303 22 155 1 262 3 237 5 -92 6 -389 8 -508 3z"/>
<path d="M2423 3663 c43 -2 110 -2 150 0 40 1 5 3 -78 3 -82 0 -115 -2 -72 -3z"/>
<path d="M2585 3595 l-70 -74 -270 -3 -270 -3 266 -2 267 -3 -26 -63 c-48
-117 -38 -231 30 -333 62 -92 177 -154 286 -154 l42 0 2 -282 3 -283 5 283 5
283 55 19 c30 11 59 19 63 20 12 0 3 -328 -10 -375 -6 -22 -14 -147 -17 -277
l-5 -238 22 0 22 0 1 278 c0 152 1 357 2 455 l2 177 25 12 c22 10 29 8 50 -12
14 -13 25 -33 25 -44 0 -30 27 -67 87 -117 29 -24 84 -72 123 -106 51 -45 78
-63 99 -63 35 0 71 37 71 73 0 32 -3 32 -35 11 -36 -23 -85 -11 -142 37 -26
22 -71 51 -100 65 -62 31 -81 50 -89 93 -6 27 -2 37 22 62 56 59 96 39 218
-105 54 -64 100 -116 103 -116 6 0 -1 9 -94 121 -94 112 -126 139 -167 139
-38 0 -72 30 -62 56 3 9 -16 -4 -44 -29 -83 -74 -129 -92 -240 -92 -84 0 -101
3 -148 28 -143 75 -213 199 -199 353 10 101 68 196 154 253 31 21 40 31 27 31
-10 -1 -50 -34 -89 -75z m539 -549 c-23 -31 -40 -33 -55 -5 -9 17 -7 25 12 45
23 24 23 24 42 5 19 -19 19 -20 1 -45z"/>
<path d="M2230 3627 c0 -20 26 -57 47 -66 53 -24 72 -2 31 37 -22 19 -78 40
-78 29z"/>
<path d="M2735 3579 c-54 -27 -69 -45 -20 -24 22 10 47 21 55 25 25 12 135
-15 183 -45 54 -34 91 -88 107 -157 37 -150 -63 -274 -220 -272 -78 1 -130 24
-182 82 -55 61 -76 152 -55 237 6 26 6 28 -5 10 -7 -11 -12 -49 -11 -85 1
-116 66 -207 176 -244 59 -20 90 -20 153 -1 147 44 221 215 152 350 -31 60
-80 108 -130 129 -53 23 -153 20 -203 -5z"/>
<path d="M3115 3565 c40 -56 51 -66 29 -27 -10 18 -28 41 -38 50 -12 10 -8 0
9 -23z"/>
<path d="M2425 3580 c-3 -5 -1 -10 4 -10 6 0 11 5 11 10 0 6 -2 10 -4 10 -3 0
-8 -4 -11 -10z"/>
<path d="M2644 3513 c-30 -41 -39 -62 -15 -33 23 27 44 60 38 60 -2 0 -12 -12
-23 -27z"/>
<path d="M1812 3497 c-15 -15 -22 -35 -21 -58 l1 -34 8 38 c9 49 20 59 72 68
l43 6 -41 2 c-30 1 -46 -5 -62 -22z"/>
<path d="M3161 3495 c1 -19 18 -51 18 -35 0 8 -4 22 -9 30 -5 8 -9 11 -9 5z"/>
<path d="M2930 3350 l0 -120 -30 0 -30 0 0 90 c0 89 0 90 -25 90 -24 0 -24 -2
-27 -87 -3 -88 -3 -88 -30 -91 -27 -3 -28 -2 -28 47 0 48 -2 51 -25 51 -22 0
-25 -4 -25 -37 0 -45 -8 -59 -35 -66 -11 -2 61 -5 160 -5 99 0 172 2 163 5
-16 4 -18 19 -18 124 l0 119 -25 0 -25 0 0 -120z"/>
<path d="M3187 3375 c3 -46 -1 -87 -11 -120 -8 -27 -13 -51 -11 -53 2 -2 11
20 19 49 17 56 20 141 7 174 -5 11 -6 -10 -4 -50z"/>
<path d="M1901 3396 c-8 -9 -11 -72 -9 -212 l3 -199 238 -3 237 -2 0 210 c0
115 -3 210 -7 210 -409 10 -451 10 -462 -4z m389 -39 c0 -14 -16 -39 -40 -62
-46 -45 -48 -63 -25 -164 9 -36 13 -71 11 -78 -12 -30 -38 -10 -68 52 l-32 65
-27 -26 c-23 -22 -26 -30 -18 -52 21 -55 -15 -71 -45 -21 -10 17 -34 40 -52
51 -53 31 -43 65 14 49 26 -8 34 -5 58 20 l27 29 -71 31 c-40 18 -72 36 -72
40 0 19 27 21 117 9 l94 -13 44 47 c49 51 85 61 85 23z"/>
<path d="M1794 3195 c0 -77 2 -107 3 -67 2 40 2 103 0 140 -2 37 -3 4 -3 -73z"/>
<path d="M3140 3170 c-6 -11 -8 -20 -6 -20 3 0 10 9 16 20 6 11 8 20 6 20 -3
0 -10 -9 -16 -20z"/>
<path d="M1781 2858 c-1 -53 3 -88 9 -88 11 0 11 100 0 145 -5 21 -8 4 -9 -57z"/>
<path d="M3260 2925 c0 -15 18 -40 24 -34 3 3 -1 14 -9 25 -8 10 -14 15 -15 9z"/>
<path d="M2592 2813 c-17 -30 30 -113 64 -113 33 0 24 70 -12 101 -33 28 -42
30 -52 12z"/>
<path d="M2330 2585 l0 -135 35 0 c19 0 35 -5 35 -11 0 -7 -17 -10 -45 -7 -25
2 -45 2 -45 2 0 -1 15 -17 33 -36 17 -19 58 -65 90 -102 67 -76 67 -81 -15
-116 -72 -31 -176 -25 -241 13 -179 105 -182 365 -5 466 29 17 48 31 42 31
-20 0 -102 -59 -127 -92 -84 -109 -72 -270 25 -365 60 -58 118 -83 198 -83 91
0 152 30 207 101 68 89 95 179 54 179 -11 0 -23 5 -26 10 -4 6 7 10 24 10 37
0 40 20 14 96 -29 86 -146 174 -230 174 -23 0 -23 -2 -23 -135z"/>
<path d="M2245 2700 c-14 -7 -8 -8 20 -3 22 3 42 7 44 9 9 8 -45 2 -64 -6z"/>
<path d="M1780 2565 c0 -63 4 -105 10 -105 6 0 10 42 10 105 0 63 -4 105 -10
105 -6 0 -10 -42 -10 -105z"/>
<path d="M2650 2607 c0 -17 29 -57 41 -57 16 0 10 36 -9 53 -22 20 -32 21 -32
4z"/>
<path d="M1781 2243 c2 -136 17 -158 18 -25 1 68 -3 112 -9 112 -6 0 -10 -35
-9 -87z"/>
<path d="M2841 2173 c0 -35 2 -63 7 -63 4 0 6 21 4 48 -5 75 -10 82 -11 15z"/>
<path d="M2115 1500 c-4 -7 127 -10 384 -10 254 0 391 4 391 10 0 6 -135 10
-384 10 -246 0 -387 -4 -391 -10z"/>
</g>
</svg>
